<svg id="Layer_1" data-name="Layer 1" xmlns="http://www.w3.org/2000/svg" xmlns:xlink="http://www.w3.org/1999/xlink" viewBox="0 0 16 12.02"><defs><clipPath id="clip-path"><path d="M.05,6s3.6-6,8-6,8,6,8,6-3.6,6-8,6S.05,6,.05,6Z" fill="none"/></clipPath><clipPath id="clip-path-2"><rect x="0.05" width="16" height="12" fill="none"/></clipPath><clipPath id="clip-path-3"><circle cx="8.05" cy="6" r="3" fill="none"/></clipPath></defs><title>eye-large</title><g id="eye"><g clip-path="url(#clip-path)"><g clip-path="url(#clip-path-2)"><path d="M8.05,1c3.09,0,5.87,3.64,6.81,5-1.19,1.76-4,5-6.81,5C5,11,2.18,7.36,1.24,6c1.2-1.76,4-5,6.81-5m0-1c-4.4,0-8,6-8,6s3.6,6,8,6,8-6,8-6-3.6-6-8-6Z"/></g></g></g><g id="pupil"><g clip-path="url(#clip-path-3)"><g clip-path="url(#clip-path-2)"><path d="M8.05,4a2,2,0,1,1-2,2,2,2,0,0,1,2-2m0-1a3,3,0,1,0,3,3,3,3,0,0,0-3-3Z"/></g></g></g></svg>