<svg xmlns="http://www.w3.org/2000/svg" width="16" height="12" viewBox="0 0 16 12">
  <g fill="none" stroke="#949496">
    <path d="M0.592096197,6 C0.719475341,6.19470024 0.868084056,6.41143933 1.03658961,6.64475472 C1.53127436,7.32970283 2.09301212,8.01474888 2.70949419,8.65248895 C4.43688526,10.4394452 6.23982837,11.5 8,11.5 C9.76017163,11.5 11.5631147,10.4394452 13.2905058,8.65248895 C13.9069879,8.01474888 14.4687256,7.32970283 14.9634104,6.64475472 C15.1319159,6.41143933 15.2805247,6.19470024 15.4079038,6 C15.2805247,5.80529976 15.1319159,5.58856067 14.9634104,5.35524528 C14.4687256,4.67029717 13.9069879,3.98525112 13.2905058,3.34751105 C11.5631147,1.56055477 9.76017163,0.5 8,0.5 C6.23982837,0.5 4.43688526,1.56055477 2.70949419,3.34751105 C2.09301212,3.98525112 1.53127436,4.67029717 1.03658961,5.35524528 C0.868084056,5.58856067 0.719475341,5.80529976 0.592096197,6 Z"/>
    <circle class="pupil" cx="8" cy="6" r="2.5"/>
  </g>
</svg>
