<svg id="Layer_1" data-name="Layer 1" xmlns="http://www.w3.org/2000/svg" viewBox="0 0 16 16"><title>gear</title><path d="M8,2.28,9.06,4.14l.58,1H13L11.87,7l-.59,1,.59,1L13,10.86H9.64l-.58,1L8,13.72,6.94,11.86l-.58-1H3.05L4.13,9l.59-1L4.13,7,3.05,5.14H6.36l.58-1L8,2.28M9,0H7L5.2,3.15l-3.63,0-1,1.74L2.4,8,.57,11.13l1,1.74,3.63,0L7,16H9l1.8-3.15,3.63,0,1-1.74L13.6,8l1.83-3.13-1-1.74-3.63,0L9,0Z"/><path d="M8,7.12A.88.88,0,1,1,7.12,8,.87.87,0,0,1,8,7.12m0-2A2.88,2.88,0,1,0,10.88,8,2.88,2.88,0,0,0,8,5.12Z"/></svg>