<svg id="Layer_1" data-name="Layer 1" xmlns="http://www.w3.org/2000/svg" viewBox="0 0 16 16"><title>gear</title><path d="M8,6.7A1.3,1.3,0,1,1,6.7,8,1.3,1.3,0,0,1,8,6.7M8,5a3,3,0,1,0,3,3A3,3,0,0,0,8,5Z"/><path d="M8.78,1.8,9.4,3.35a1.8,1.8,0,0,0,1.67,1.13l.26,0L13,4.22l.78,1.36-1,1.31a1.8,1.8,0,0,0,0,2.22l1,1.31L13,11.78l-1.65-.24-.26,0A1.8,1.8,0,0,0,9.4,12.65L8.78,14.2H7.22L6.6,12.65a1.8,1.8,0,0,0-1.67-1.13l-.26,0L3,11.78l-.78-1.36,1-1.31a1.8,1.8,0,0,0,0-2.22l-1-1.31L3,4.22l1.65.24.26,0A1.8,1.8,0,0,0,6.6,3.35L7.22,1.8H8.78M10,0H6L4.93,2.68,2.07,2.27l-2,3.46L1.86,8,.07,10.27l2,3.46,2.86-.41L6,16h4l1.07-2.68,2.86.41,2-3.46L14.14,8l1.79-2.27-2-3.46-2.86.41L10,0Z"/></svg>