<svg id="Layer_1" data-name="Layer 1" xmlns="http://www.w3.org/2000/svg" viewBox="0 0 16 16"><title>gear</title><path d="M8,7A1,1,0,1,1,7,8,1,1,0,0,1,8,7M8,5a3,3,0,1,0,3,3A3,3,0,0,0,8,5Z"/><path d="M8.65,2l.56,1.42a2,2,0,0,0,1.86,1.26l.29,0,1.51-.22.65,1.12-.95,1.2a2,2,0,0,0,0,2.48l.95,1.2-.65,1.12-1.51-.22-.29,0a2,2,0,0,0-1.86,1.26L8.65,14H7.35l-.56-1.42a2,2,0,0,0-1.86-1.26l-.29,0-1.51.22-.65-1.12,1-1.2a2,2,0,0,0,0-2.48l-1-1.2.65-1.12,1.51.22.29,0A2,2,0,0,0,6.79,3.42L7.35,2h1.3M10,0H6L4.93,2.68,2.07,2.27l-2,3.46L1.86,8,.07,10.27l2,3.46,2.86-.41L6,16h4l1.07-2.68,2.86.41,2-3.46L14.14,8l1.79-2.27-2-3.46-2.86.41L10,0Z"/></svg>