<svg id="Layer_1" data-name="Layer 1" xmlns="http://www.w3.org/2000/svg" viewBox="0 0 16 16"><title>gear</title><path d="M8.42,1,9.93,3.65l.29.5h3.63l.42.72L12.74,7.5l-.3.5.3.5,1.53,2.64-.42.72H10.22l-.29.5L8.42,15H7.58L6.07,12.35l-.29-.5H2.15l-.42-.72L3.26,8.5l.3-.5-.3-.5L1.73,4.86l.42-.72H5.78l.29-.5L7.58,1h.84M9,0H7L5.2,3.15l-3.63,0-1,1.74L2.4,8,.57,11.13l1,1.74,3.63,0L7,16H9l1.8-3.15,3.63,0,1-1.74L13.6,8l1.83-3.13-1-1.74-3.63,0L9,0Z"/><path d="M8,6A2,2,0,1,1,6,8,2,2,0,0,1,8,6M8,5a3,3,0,1,0,3,3A3,3,0,0,0,8,5Z"/></svg>