<svg width="17" height="12" viewBox="0 0 17 12" xmlns="http://www.w3.org/2000/svg">
  <path fill-rule="evenodd" clip-rule="evenodd"
    d="M2 2.5C2 1.67157 2.67157 1 3.5 1H13.5C14.3284 1 15 1.67157 15 2.5V9.5C15 10.3284 14.3284 11 13.5 11H3.5C2.67157 11 2 10.3284 2 9.5V2.5ZM3.5 2C3.22386 2 3 2.22386 3 2.5V4H6V2H3.5ZM7 2V4H10V2H7ZM11 2V4H14V2.5C14 2.22386 13.7761 2 13.5 2H11ZM14 5H11V7H14V5ZM14 8H11V10H13.5C13.7761 10 14 9.77614 14 9.5V8ZM10 10V8H7V10H10ZM6 10V8H3V9.5C3 9.77614 3.22386 10 3.5 10H6ZM3 7H6V5H3V7ZM7 5V7H10V5H7Z"
    fill="black" />
  <circle cx="4" cy="9" r="0.5" fill="black" />
</svg>
