<svg xmlns="http://www.w3.org/2000/svg" width="16" height="16" viewBox="0 0 16 16">
  <g fill-rule="evenodd">
    <polygon points="7 0 7 11 3 11 3 0 4 0 4 10 6 10 6 0"/>
    <polygon points="12 10 10 10 10 0 9 0 9 11 13 11 13 0 12 0"/>
    <rect width="1" height="5" x="5" y="11"/>
    <rect width="1" height="5" x="10" y="11"/>
    <path d="M16,0 L16,16 L0,16 L0,0 L16,0 Z M15,1 L1,1 L1,15 L15,15 L15,1 L15,1 Z"/>
  </g>
  <g class='keys-black' opacity="0" fill-rule="evenodd">
    <rect width="4" height="11" x="3"/>
    <rect width="4" height="11" x="9"/>
  </g>
</svg>
