<svg width="16" height="12" viewBox="0 0 16 12" xmlns="http://www.w3.org/2000/svg">
  <path fill-rule="evenodd" clip-rule="evenodd"
    d="M7.38186 1C10.2085 1 12.5 3.29147 12.5 6.11814V6.69344C12.5 9.07189 10.5719 11 8.19343 11H7.09711C5.11048 11 3.5 9.38952 3.5 7.40289V7.11567C3.5 5.39493 4.89493 4 6.61567 4H7.41153C8.56496 4 9.5 4.93504 9.5 6.08847V6.5C9.5 7.32843 8.82843 8 8 8H7.25C6.83579 8 6.5 7.66421 6.5 7.25C6.5 6.83579 6.83579 6.5 7.25 6.5H7.5C7.77614 6.5 8 6.27614 8 6C8 5.72386 7.77614 5.5 7.5 5.5H7.25C6.2835 5.5 5.5 6.2835 5.5 7.25C5.5 8.2165 6.2835 9 7.25 9H8C9.38071 9 10.5 7.88071 10.5 6.5V6.08847C10.5 4.38275 9.11725 3 7.41153 3H6.61567C4.34265 3 2.5 4.84265 2.5 7.11567V7.40289C2.5 9.9418 4.5582 12 7.09711 12H8.19343C11.1242 12 13.5 9.62417 13.5 6.69344V6.11814C13.5 2.73918 10.7608 0 7.38186 0H6C5.72386 0 5.5 0.223858 5.5 0.5C5.5 0.776142 5.72386 1 6 1H7.38186Z"
    fill="black" />
</svg>
