<svg id="Layer_1" data-name="Layer 1" xmlns="http://www.w3.org/2000/svg" viewBox="0 0 7 7"><title>refresh</title><rect x="2" y="4" width="1" height="3"/><rect y="6" width="3" height="1"/><rect x="4" width="1" height="3" transform="translate(9 3) rotate(180)"/><rect x="4" width="3" height="1" transform="translate(11 1) rotate(180)"/><path d="M4,.05v1A2.5,2.5,0,0,1,5.27,5.27L6,6A3.44,3.44,0,0,0,7,3.5,3.49,3.49,0,0,0,4,.05Z"/><path d="M3,6A2.5,2.5,0,0,1,1.73,1.73L1,1A3.44,3.44,0,0,0,0,3.5,3.49,3.49,0,0,0,3,7Z"/></svg>